HIERARCHY
ROOT joint_0
{
	OFFSET 0.000000 0.000000 0.000000
	CHANNELS 6 Xposition Yposition Zposition Zrotation Yrotation Xrotation 
	JOINT joint_1
	{
		OFFSET 0.587158 0.057678 95.682007
		CHANNELS 3 Zrotation Yrotation Xrotation
		JOINT joint_2
		{
			OFFSET -7.116699 -0.219910 87.157959
			CHANNELS 3 Zrotation Yrotation Xrotation
			JOINT joint_3
			{
				OFFSET -5.892822 -0.290222 87.151001
				CHANNELS 3 Zrotation Yrotation Xrotation
				JOINT joint_4
				{
					OFFSET 5.544678 -0.099609 123.768066
					CHANNELS 3 Zrotation Yrotation Xrotation
					JOINT joint_5
					{
						OFFSET 41.981201 4.519775 84.257935
						CHANNELS 3 Zrotation Yrotation Xrotation
						End Site
						{
							OFFSET 0.000000 0.000000 0.000000
						}
					}
				}
				JOINT joint_6
				{
					OFFSET 3.940918 -26.976501 69.308105
					CHANNELS 3 Zrotation Yrotation Xrotation
					JOINT joint_7
					{
						OFFSET 4.776123 -152.592468 -16.842041
						CHANNELS 3 Zrotation Yrotation Xrotation
						JOINT joint_8
						{
							OFFSET 54.421875 -30.424072 -248.864014
							CHANNELS 3 Zrotation Yrotation Xrotation
							JOINT joint_9
							{
								OFFSET 42.120117 -33.387878 -236.524963
								CHANNELS 3 Zrotation Yrotation Xrotation
								End Site
								{
									OFFSET 0.000000 0.000000 0.000000
								}
							}
						}
					}
				}
				JOINT joint_10
				{
					OFFSET 2.312012 26.904114 69.425049
					CHANNELS 3 Zrotation Yrotation Xrotation
					JOINT joint_11
					{
						OFFSET 0.971436 152.197815 -20.626953
						CHANNELS 3 Zrotation Yrotation Xrotation
						JOINT joint_12
						{
							OFFSET 49.954102 28.991455 -249.970093
							CHANNELS 3 Zrotation Yrotation Xrotation
							JOINT joint_13
							{
								OFFSET 48.146973 19.598389 -236.919922
								CHANNELS 3 Zrotation Yrotation Xrotation
								End Site
								{
									OFFSET 0.000000 0.000000 0.000000
								}
							}
						}
					}
				}
			}
		}
	}
	JOINT joint_14
	{
		OFFSET 16.305664 -89.442932 -108.224976
		CHANNELS 3 Zrotation Yrotation Xrotation
		JOINT joint_15
		{
			OFFSET -22.282471 13.437134 -412.904968
			CHANNELS 3 Zrotation Yrotation Xrotation
			JOINT joint_16
			{
				OFFSET -45.426025 14.484802 -445.892029
				CHANNELS 3 Zrotation Yrotation Xrotation
				JOINT joint_17
				{
					OFFSET 173.389404 -9.944031 -76.473001
					CHANNELS 3 Zrotation Yrotation Xrotation
					End Site
					{
						OFFSET 0.000000 0.000000 0.000000
					}
				}
			}
		}
	}
	JOINT joint_18
	{
		OFFSET 13.392822 89.408875 -108.653992
		CHANNELS 3 Zrotation Yrotation Xrotation
		JOINT joint_19
		{
			OFFSET -29.032959 24.483521 -411.977966
			CHANNELS 3 Zrotation Yrotation Xrotation
			JOINT joint_20
			{
				OFFSET -30.530029 28.986328 -446.453018
				CHANNELS 3 Zrotation Yrotation Xrotation
				JOINT joint_21
				{
					OFFSET 170.330078 33.400757 -76.698997
					CHANNELS 3 Zrotation Yrotation Xrotation
					End Site
					{
						OFFSET 0.000000 0.000000 0.000000
					}
				}
			}
		}
	}
}
MOTION
Frames: 7
Frame Time: 0.016667
-2523.200195 816.039062 1080.012939 -6.871821 19.289671 1.960746 -0.629217 -8.604025 3.346856 -1.078430 1.273402 -0.644161 -0.990134 -1.698608 0.584763 -2.922583 -20.232029 10.355661 0.000000 0.000000 0.000000 0.616368 6.246501 2.329727 -0.542939 6.070212 -7.027992 2.171177 -12.148460 -0.791314 0.000000 0.000000 0.000000 -1.293645 6.497010 4.772512 0.512965 6.922273 -5.071422 -1.559750 -8.064915 -5.443274 0.000000 0.000000 0.000000 -2.921702 -14.893226 -8.765568 -4.625819 -0.001377 0.821074 -4.190706 8.062453 -1.286767 0.000000 0.000000 0.000000 2.025191 -28.564472 3.737448 4.749297 32.319896 -8.930780 2.137891 6.586024 -0.463947 0.000000 0.000000 0.000000 
-2513.769531 818.138062 1080.014038 -7.094451 19.786146 1.876420 -0.638310 -8.614682 3.461997 -1.216655 1.252952 -0.660846 -1.133019 -1.683297 0.586875 -2.984203 -20.007286 10.507050 0.000000 0.000000 0.000000 0.703504 6.028463 2.242289 -0.547975 5.860700 -7.166908 2.089527 -11.788913 -1.045797 0.000000 0.000000 0.000000 -1.206134 6.387706 5.270076 0.428936 6.816300 -5.564506 -1.530844 -8.050030 -5.260514 0.000000 0.000000 0.000000 -2.347752 -15.246502 -9.279586 -4.419327 0.679231 1.045112 -3.996901 8.073312 -1.196200 0.000000 0.000000 0.000000 2.395896 -31.284513 4.680131 5.017859 36.131359 -10.117413 2.192165 6.921670 -0.536505 0.000000 0.000000 0.000000 
-2504.391357 820.877930 1079.931030 -7.271373 20.174221 1.740281 -0.707674 -8.580444 3.620553 -1.389681 1.230261 -0.686418 -1.308003 -1.658101 0.593748 -3.048290 -19.628101 10.619637 0.000000 0.000000 0.000000 0.740463 5.751780 2.119813 -0.513665 5.590478 -7.221287 2.017979 -11.585368 -1.452835 0.000000 0.000000 0.000000 -1.093999 6.252261 5.792201 0.359525 6.684711 -6.031711 -1.529594 -8.114079 -5.234406 0.000000 0.000000 0.000000 -1.767675 -15.489151 -9.789658 -4.183793 1.400757 1.266442 -3.784953 8.055141 -1.099944 0.000000 0.000000 0.000000 2.927716 -33.961298 5.436570 5.409427 39.388817 -10.948162 2.652708 6.464182 -0.291463 0.000000 0.000000 0.000000 
-2494.366699 824.076782 1079.854980 -7.503495 20.479672 1.534084 -0.841181 -8.599074 3.857863 -1.548864 1.218558 -0.749065 -1.455712 -1.657019 0.622059 -3.122429 -19.289329 10.768882 0.000000 0.000000 0.000000 0.734566 5.776361 1.911081 -0.267612 5.608674 -7.222464 2.209641 -13.026049 -2.330923 0.000000 0.000000 0.000000 -0.840715 6.258332 6.160569 0.441633 6.692103 -6.141998 -1.607679 -8.834997 -5.564422 0.000000 0.000000 0.000000 -1.349968 -15.701225 -10.125196 -3.936061 2.182594 1.340887 -3.579112 8.209281 -0.997016 0.000000 0.000000 0.000000 3.392300 -36.044545 5.859404 5.784743 40.997037 -11.036709 3.291859 5.842909 0.068201 0.000000 0.000000 0.000000 
-2483.421631 827.667847 1080.031006 -7.638018 20.719358 1.303153 -1.107433 -8.794911 4.166992 -1.732520 1.266245 -0.838214 -1.613823 -1.688590 0.678850 -3.214820 -19.090580 10.984883 0.000000 0.000000 0.000000 0.715919 6.335771 1.802301 0.259797 6.129943 -7.554491 2.863014 -17.005840 -3.719044 0.000000 0.000000 0.000000 -0.348996 6.472965 6.194819 0.809971 6.903545 -5.560145 -1.795461 -10.540484 -6.513109 0.000000 0.000000 0.000000 -1.294016 -15.837682 -10.150768 -3.745209 2.865799 1.115835 -3.441114 8.810698 -0.897643 0.000000 0.000000 0.000000 3.798184 -37.379541 5.734740 6.328008 40.019097 -10.014130 4.406573 5.216207 0.646764 0.000000 0.000000 0.000000 
-2471.829346 831.719055 1080.213989 -7.808893 20.889640 1.011043 -1.442792 -9.071618 4.559174 -1.908913 1.338066 -0.949400 -1.754693 -1.738699 0.744842 -3.310812 -18.932858 11.209485 0.000000 0.000000 0.000000 0.676584 7.182274 1.816827 1.019603 6.923855 -8.137180 3.757941 -22.523599 -5.682818 0.000000 0.000000 0.000000 0.272382 6.815027 6.004675 1.400014 7.246112 -4.560308 -2.011810 -12.883818 -7.833425 0.000000 0.000000 0.000000 -1.414284 -15.963761 -9.999684 -3.541421 3.608610 0.728895 -3.305605 9.613199 -0.786717 0.000000 0.000000 0.000000 4.118324 -38.061251 5.290195 6.937231 37.228240 -8.308353 5.574841 4.739211 1.250304 0.000000 0.000000 0.000000 
-2459.710205 836.250610 1079.745972 -8.403810 21.044860 0.611004 -1.694603 -9.333157 4.981622 -1.965137 1.381834 -1.070318 -1.769813 -1.798773 0.805249 -3.382031 -18.724756 11.389662 0.000000 0.000000 0.000000 0.565889 7.975989 1.625832 2.032100 7.698436 -8.262234 4.594108 -28.445599 -8.533505 0.000000 0.000000 0.000000 0.842154 7.243163 5.873380 2.024266 7.688697 -3.765285 -2.158648 -15.454836 -8.942928 0.000000 0.000000 0.000000 -1.346458 -16.387640 -9.989013 -3.171882 4.918271 0.487901 -3.042737 10.019190 -0.643759 0.000000 0.000000 0.000000 4.058689 -38.141038 5.017885 7.026955 34.474481 -6.702194 5.668946 4.566337 1.367356 0.000000 0.000000 0.000000 
